<svg width="375" height="812" viewBox="0 0 375 812" xmlns="http://www.w3.org/2000/svg">
  <!-- 背景 -->
  <defs>
    <linearGradient id="battleBg" x1="0%" y1="0%" x2="100%" y2="100%">
      <stop offset="0%" style="stop-color:#1a1a2e;stop-opacity:1" />
      <stop offset="50%" style="stop-color:#16213e;stop-opacity:1" />
      <stop offset="100%" style="stop-color:#0f3460;stop-opacity:1" />
    </linearGradient>
    <linearGradient id="skillBg" x1="0%" y1="0%" x2="100%" y2="100%">
      <stop offset="0%" style="stop-color:#ffd700;stop-opacity:0.8" />
      <stop offset="100%" style="stop-color:#ffb347;stop-opacity:0.8" />
    </linearGradient>
    <filter id="glow">
      <feGaussianBlur stdDeviation="3" result="coloredBlur"/>
      <feMerge> 
        <feMergeNode in="coloredBlur"/>
        <feMergeNode in="SourceGraphic"/> 
      </feMerge>
    </filter>
    <filter id="battleEffect">
      <feGaussianBlur stdDeviation="2" result="coloredBlur"/>
      <feMerge> 
        <feMergeNode in="coloredBlur"/>
        <feMergeNode in="SourceGraphic"/> 
      </feMerge>
    </filter>
  </defs>
  
  <rect width="375" height="812" fill="url(#battleBg)"/>
  
  <!-- 战斗背景装饰 -->
  <g opacity="0.2">
    <circle cx="80" cy="150" r="40" fill="#ff6b6b"/>
    <circle cx="300" cy="250" r="30" fill="#ffd700"/>
    <circle cx="150" cy="350" r="35" fill="#4ecdc4"/>
  </g>
  
  <!-- 顶部状态栏 -->
  <rect x="0" y="0" width="375" height="88" fill="rgba(0,0,0,0.9)"/>
  
  <!-- 返回按钮 -->
  <g transform="translate(20,54)">
    <circle cx="0" cy="0" r="18" fill="rgba(255,255,255,0.1)" stroke="#ffd700" stroke-width="1"/>
    <path d="M-6,-3 L-6,3 L6,0 Z" fill="#ffd700"/>
  </g>
  
  <!-- 战斗回合信息 -->
  <text x="187.5" y="50" text-anchor="middle" fill="#ffd700" font-size="14" font-weight="bold">第3回合</text>
  <text x="187.5" y="68" text-anchor="middle" fill="#ffffff" font-size="12">关羽的回合</text>
  
  <!-- 自动战斗开关 -->
  <g transform="translate(320,44)">
    <rect x="0" y="0" width="40" height="20" rx="10" fill="#4ecdc4"/>
    <circle cx="30" cy="10" r="8" fill="#ffffff"/>
    <text x="-45" y="14" fill="#ffffff" font-size="10">自动</text>
  </g>
  
  <!-- 敌方阵容 -->
  <g transform="translate(0,100)">
    <text x="20" y="0" fill="#ff6b6b" font-size="14" font-weight="bold">敌方</text>
    
    <!-- 敌方武将1 -->
    <g transform="translate(50,20)">
      <circle cx="0" cy="0" r="30" fill="#8B0000" stroke="#ff6b6b" stroke-width="2"/>
      <text x="0" y="5" text-anchor="middle" fill="#ffffff" font-size="10" font-weight="bold">曹操</text>
      <!-- 血量条 -->
      <rect x="-25" y="35" width="50" height="6" rx="3" fill="rgba(0,0,0,0.5)"/>
      <rect x="-25" y="35" width="35" height="6" rx="3" fill="#ff6b6b"/>
      <text x="0" y="50" text-anchor="middle" fill="#ffffff" font-size="8">HP: 1200/1500</text>
    </g>
    
    <!-- 敌方武将2 -->
    <g transform="translate(150,20)">
      <circle cx="0" cy="0" r="30" fill="#2F4F4F" stroke="#ff6b6b" stroke-width="2"/>
      <text x="0" y="5" text-anchor="middle" fill="#ffffff" font-size="10" font-weight="bold">典韦</text>
      <rect x="-25" y="35" width="50" height="6" rx="3" fill="rgba(0,0,0,0.5)"/>
      <rect x="-25" y="35" width="40" height="6" rx="3" fill="#ff6b6b"/>
      <text x="0" y="50" text-anchor="middle" fill="#ffffff" font-size="8">HP: 1400/1400</text>
    </g>
    
    <!-- 敌方武将3 -->
    <g transform="translate(250,20)">
      <circle cx="0" cy="0" r="30" fill="#8A2BE2" stroke="#ff6b6b" stroke-width="2"/>
      <text x="0" y="5" text-anchor="middle" fill="#ffffff" font-size="9" font-weight="bold">郭嘉</text>
      <rect x="-25" y="35" width="50" height="6" rx="3" fill="rgba(0,0,0,0.5)"/>
      <rect x="-25" y="35" width="45" height="6" rx="3" fill="#ff6b6b"/>
      <text x="0" y="50" text-anchor="middle" fill="#ffffff" font-size="8">HP: 1100/1100</text>
    </g>
  </g>
  
  <!-- 战斗特效区域 -->
  <g transform="translate(187.5,250)">
    <!-- 技能释放特效 -->
    <circle cx="0" cy="0" r="40" fill="none" stroke="#ffd700" stroke-width="3" opacity="0.8" filter="url(#battleEffect)">
      <animate attributeName="r" values="20;60;20" dur="1.5s" repeatCount="indefinite"/>
      <animate attributeName="opacity" values="0.8;0.3;0.8" dur="1.5s" repeatCount="indefinite"/>
    </circle>
    
    <!-- 伤害数字 -->
    <text x="0" y="-60" text-anchor="middle" fill="#ff6b6b" font-size="24" font-weight="bold" filter="url(#glow)">-850</text>
    
    <!-- 连击效果 -->
    <text x="0" y="-35" text-anchor="middle" fill="#ffd700" font-size="16" font-weight="bold">连击!</text>
  </g>
  
  <!-- 我方阵容 -->
  <g transform="translate(0,400)">
    <text x="20" y="0" fill="#4ecdc4" font-size="14" font-weight="bold">我方</text>
    
    <!-- 我方武将1 - 关羽(当前行动) -->
    <g transform="translate(50,20)">
      <circle cx="0" cy="0" r="30" fill="#8B4513" stroke="#ffd700" stroke-width="3"/>
      <circle cx="0" cy="0" r="35" fill="none" stroke="#ffd700" stroke-width="2" opacity="0.6">
        <animate attributeName="opacity" values="0.6;1;0.6" dur="1s" repeatCount="indefinite"/>
      </circle>
      <text x="0" y="5" text-anchor="middle" fill="#ffffff" font-size="10" font-weight="bold">关羽</text>
      <rect x="-25" y="35" width="50" height="6" rx="3" fill="rgba(0,0,0,0.5)"/>
      <rect x="-25" y="35" width="42" height="6" rx="3" fill="#4ecdc4"/>
      <text x="0" y="50" text-anchor="middle" fill="#ffffff" font-size="8">HP: 1680/2000</text>
    </g>
    
    <!-- 我方武将2 -->
    <g transform="translate(150,20)">
      <circle cx="0" cy="0" r="30" fill="#2F4F4F" stroke="#4ecdc4" stroke-width="2"/>
      <text x="0" y="5" text-anchor="middle" fill="#ffffff" font-size="10" font-weight="bold">张飞</text>
      <rect x="-25" y="35" width="50" height="6" rx="3" fill="rgba(0,0,0,0.5)"/>
      <rect x="-25" y="35" width="38" height="6" rx="3" fill="#4ecdc4"/>
      <text x="0" y="50" text-anchor="middle" fill="#ffffff" font-size="8">HP: 1520/1800</text>
    </g>
    
    <!-- 我方武将3 -->
    <g transform="translate(250,20)">
      <circle cx="0" cy="0" r="30" fill="#8A2BE2" stroke="#4ecdc4" stroke-width="2"/>
      <text x="0" y="5" text-anchor="middle" fill="#ffffff" font-size="9" font-weight="bold">诸葛亮</text>
      <rect x="-25" y="35" width="50" height="6" rx="3" fill="rgba(0,0,0,0.5)"/>
      <rect x="-25" y="35" width="46" height="6" rx="3" fill="#4ecdc4"/>
      <text x="0" y="50" text-anchor="middle" fill="#ffffff" font-size="8">HP: 1380/1500</text>
    </g>
  </g>
  
  <!-- 战斗日志 -->
  <g transform="translate(20,520)">
    <rect x="0" y="0" width="335" height="80" rx="8" fill="rgba(0,0,0,0.7)" stroke="#ffd700" stroke-width="1"/>
    <text x="10" y="15" fill="#ffd700" font-size="12" font-weight="bold">战斗日志</text>
    <text x="10" y="30" fill="#ffffff" font-size="10">关羽使用了青龙斩</text>
    <text x="10" y="45" fill="#ff6b6b" font-size="10">对曹操造成850点伤害</text>
    <text x="10" y="60" fill="#4ecdc4" font-size="10">触发连击效果</text>
    <text x="10" y="75" fill="#ffffff" font-size="10">曹操进入眩晕状态</text>
  </g>
  
  <!-- 技能栏 -->
  <g transform="translate(0,620)">
    <!-- 普通攻击 -->
    <g transform="translate(20,0)">
      <rect x="0" y="0" width="60" height="60" rx="8" fill="rgba(255,255,255,0.1)" stroke="#ffffff" stroke-width="1"/>
      <circle cx="30" cy="30" r="20" fill="#666666"/>
      <text x="30" y="35" text-anchor="middle" fill="#ffffff" font-size="10" font-weight="bold">普攻</text>
    </g>
    
    <!-- 青龙斩 -->
    <g transform="translate(90,0)">
      <rect x="0" y="0" width="60" height="60" rx="8" fill="url(#skillBg)" stroke="#ffd700" stroke-width="2" filter="url(#glow)"/>
      <circle cx="30" cy="30" r="20" fill="#8B4513"/>
      <text x="30" y="35" text-anchor="middle" fill="#ffffff" font-size="9" font-weight="bold">青龙斩</text>
    </g>
    
    <!-- 武圣之怒 -->
    <g transform="translate(160,0)">
      <rect x="0" y="0" width="60" height="60" rx="8" fill="rgba(255,255,255,0.1)" stroke="#666666" stroke-width="1"/>
      <circle cx="30" cy="30" r="20" fill="#333333"/>
      <text x="30" y="35" text-anchor="middle" fill="#666666" font-size="8" font-weight="bold">武圣怒</text>
      <!-- 冷却时间 -->
      <text x="30" y="50" text-anchor="middle" fill="#666666" font-size="8">CD: 2</text>
    </g>
    
    <!-- 义薄云天 -->
    <g transform="translate(230,0)">
      <rect x="0" y="0" width="60" height="60" rx="8" fill="rgba(255,255,255,0.1)" stroke="#666666" stroke-width="1"/>
      <circle cx="30" cy="30" r="20" fill="#333333"/>
      <text x="30" y="35" text-anchor="middle" fill="#666666" font-size="8" font-weight="bold">义薄天</text>
      <text x="30" y="50" text-anchor="middle" fill="#666666" font-size="8">CD: 1</text>
    </g>
    
    <!-- 逃跑 -->
    <g transform="translate(300,0)">
      <rect x="0" y="0" width="60" height="60" rx="8" fill="rgba(255,107,107,0.2)" stroke="#ff6b6b" stroke-width="1"/>
      <circle cx="30" cy="30" r="20" fill="#8B0000"/>
      <text x="30" y="35" text-anchor="middle" fill="#ffffff" font-size="10" font-weight="bold">逃跑</text>
    </g>
  </g>
  
  <!-- 操作提示 -->
  <g transform="translate(20,690)">
    <text x="0" y="0" fill="#ffd700" font-size="12" font-weight="bold">选择技能攻击目标</text>
    <text x="0" y="15" fill="#ffffff" font-size="10">点击敌方武将进行攻击</text>
  </g>
  
  <!-- 底部控制栏 -->
  <g transform="translate(0,730)">
    <rect x="0" y="0" width="375" height="82" fill="rgba(0,0,0,0.8)"/>
    
    <!-- 暂停 -->
    <g transform="translate(30,20)">
      <circle cx="0" cy="0" r="20" fill="rgba(255,255,255,0.1)" stroke="#ffd700" stroke-width="1"/>
      <rect x="-6" y="-8" width="4" height="16" fill="#ffd700"/>
      <rect x="2" y="-8" width="4" height="16" fill="#ffd700"/>
    </g>
    
    <!-- 2倍速 -->
    <g transform="translate(90,20)">
      <circle cx="0" cy="0" r="20" fill="rgba(255,255,255,0.1)" stroke="#ffd700" stroke-width="1"/>
      <text x="0" y="5" text-anchor="middle" fill="#ffd700" font-size="12" font-weight="bold">2x</text>
    </g>
    
    <!-- 设置 -->
    <g transform="translate(150,20)">
      <circle cx="0" cy="0" r="20" fill="rgba(255,255,255,0.1)" stroke="#ffd700" stroke-width="1"/>
      <circle cx="0" cy="0" r="8" fill="none" stroke="#ffd700" stroke-width="2"/>
      <circle cx="0" cy="-12" r="2" fill="#ffd700"/>
      <circle cx="0" cy="12" r="2" fill="#ffd700"/>
      <circle cx="-12" cy="0" r="2" fill="#ffd700"/>
      <circle cx="12" cy="0" r="2" fill="#ffd700"/>
    </g>
    
    <!-- 投降 -->
    <g transform="translate(210,20)">
      <circle cx="0" cy="0" r="20" fill="rgba(255,107,107,0.2)" stroke="#ff6b6b" stroke-width="1"/>
      <text x="0" y="5" text-anchor="middle" fill="#ff6b6b" font-size="10" font-weight="bold">投降</text>
    </g>
    
    <!-- 战斗记录 -->
    <g transform="translate(270,20)">
      <circle cx="0" cy="0" r="20" fill="rgba(255,255,255,0.1)" stroke="#ffd700" stroke-width="1"/>
      <rect x="-8" y="-6" width="16" height="2" fill="#ffd700"/>
      <rect x="-8" y="-2" width="16" height="2" fill="#ffd700"/>
      <rect x="-8" y="2" width="16" height="2" fill="#ffd700"/>
      <rect x="-8" y="6" width="16" height="2" fill="#ffd700"/>
    </g>
  </g>
  
  <!-- 战斗特效粒子 -->
  <g opacity="0.6">
    <circle cx="100" cy="200" r="2" fill="#ffd700">
      <animate attributeName="cy" values="200;150;200" dur="2s" repeatCount="indefinite"/>
      <animate attributeName="opacity" values="0;1;0" dur="2s" repeatCount="indefinite"/>
    </circle>
    <circle cx="280" cy="180" r="1.5" fill="#ff6b6b">
      <animate attributeName="cy" values="180;130;180" dur="1.8s" repeatCount="indefinite"/>
      <animate attributeName="opacity" values="0;1;0" dur="1.8s" repeatCount="indefinite"/>
    </circle>
    <circle cx="200" cy="220" r="2.5" fill="#4ecdc4">
      <animate attributeName="cy" values="220;170;220" dur="2.2s" repeatCount="indefinite"/>
      <animate attributeName="opacity" values="0;1;0" dur="2.2s" repeatCount="indefinite"/>
    </circle>
  </g>
</svg>