<svg width="375" height="812" viewBox="0 0 375 812" xmlns="http://www.w3.org/2000/svg">
  <!-- 背景 -->
  <defs>
    <linearGradient id="formationBg" x1="0%" y1="0%" x2="100%" y2="100%">
      <stop offset="0%" style="stop-color:#1a202c;stop-opacity:1" />
      <stop offset="50%" style="stop-color:#2d3748;stop-opacity:1" />
      <stop offset="100%" style="stop-color:#1a1a2e;stop-opacity:1" />
    </linearGradient>
    <linearGradient id="cardGradient" x1="0%" y1="0%" x2="100%" y2="100%">
      <stop offset="0%" style="stop-color:#4a5568;stop-opacity:0.9" />
      <stop offset="100%" style="stop-color:#2d3748;stop-opacity:0.9" />
    </linearGradient>
    <linearGradient id="heroSlot" x1="0%" y1="0%" x2="100%" y2="100%">
      <stop offset="0%" style="stop-color:#4299e1;stop-opacity:0.3" />
      <stop offset="100%" style="stop-color:#2b6cb0;stop-opacity:0.3" />
    </linearGradient>
    <filter id="glow">
      <feGaussianBlur stdDeviation="3" result="coloredBlur"/>
      <feMerge> 
        <feMergeNode in="coloredBlur"/>
        <feMergeNode in="SourceGraphic"/> 
      </feMerge>
    </filter>
  </defs>
  
  <rect width="375" height="812" fill="url(#formationBg)"/>
  
  <!-- 装饰性背景图案 -->
  <g opacity="0.1">
    <circle cx="60" cy="150" r="35" fill="#4299e1"/>
    <circle cx="320" cy="250" r="20" fill="#ffd700"/>
    <circle cx="80" cy="650" r="25" fill="#48bb78"/>
    <polygon points="300,100 320,130 280,130" fill="#4299e1"/>
  </g>
  
  <!-- 顶部导航栏 -->
  <rect x="0" y="0" width="375" height="88" fill="rgba(26,32,44,0.95)"/>
  <rect x="0" y="88" width="375" height="1" fill="#4299e1" opacity="0.3"/>
  
  <!-- 返回按钮 -->
  <g transform="translate(16,44)">
    <circle cx="20" cy="20" r="18" fill="rgba(66,153,225,0.2)" stroke="#4299e1" stroke-width="1"/>
    <path d="M25 15 L15 20 L25 25" stroke="#4299e1" stroke-width="2" fill="none" stroke-linecap="round"/>
  </g>
  
  <!-- 页面标题 -->
  <text x="187" y="68" text-anchor="middle" fill="#4299e1" font-family="serif" font-size="20" font-weight="bold">阵容配置</text>
  
  <!-- 保存按钮 -->
  <g transform="translate(320,44)">
    <circle cx="20" cy="20" r="18" fill="rgba(72,187,120,0.2)" stroke="#48bb78" stroke-width="1"/>
    <text x="20" y="26" text-anchor="middle" fill="#48bb78" font-size="12">💾</text>
  </g>
  
  <!-- 阵容选择标签 -->
  <g transform="translate(20,108)">
    <!-- 主力阵容 (当前选中) -->
    <g>
      <rect x="0" y="0" width="80" height="32" rx="16" fill="rgba(66,153,225,0.3)" stroke="#4299e1" stroke-width="2"/>
      <text x="40" y="22" text-anchor="middle" fill="#4299e1" font-size="12" font-weight="bold">主力阵容</text>
    </g>
    
    <!-- 副阵容 -->
    <g transform="translate(90,0)">
      <rect x="0" y="0" width="70" height="32" rx="16" fill="rgba(66,153,225,0.1)" stroke="#4299e1" stroke-width="1"/>
      <text x="35" y="22" text-anchor="middle" fill="#a0aec0" font-size="12">副阵容</text>
    </g>
    
    <!-- 挑战阵容 -->
    <g transform="translate(170,0)">
      <rect x="0" y="0" width="80" height="32" rx="16" fill="rgba(66,153,225,0.1)" stroke="#4299e1" stroke-width="1"/>
      <text x="40" y="22" text-anchor="middle" fill="#a0aec0" font-size="12">挑战阵容</text>
    </g>
    
    <!-- 自动配置 -->
    <g transform="translate(260,0)">
      <rect x="0" y="0" width="70" height="32" rx="16" fill="rgba(255,215,0,0.2)" stroke="#ffd700" stroke-width="1"/>
      <text x="35" y="22" text-anchor="middle" fill="#ffd700" font-size="12">自动</text>
    </g>
  </g>
  
  <!-- 阵容统计 -->
  <g transform="translate(20,160)">
    <rect x="0" y="0" width="335" height="60" rx="12" fill="url(#cardGradient)" stroke="#4299e1" stroke-width="1" opacity="0.9"/>
    
    <!-- 总战力 -->
    <g transform="translate(20,15)">
      <text x="0" y="15" fill="#ffd700" font-family="serif" font-size="16" font-weight="bold">总战力: 12,850</text>
      <text x="0" y="35" fill="#a0aec0" font-size="12">已部署: 4/6 • 费用: 28/30</text>
    </g>
    
    <!-- 阵营分布 -->
    <g transform="translate(200,15)">
      <text x="0" y="15" fill="#e2e8f0" font-size="12">阵营分布:</text>
      <g transform="translate(0,20)">
        <circle cx="8" cy="8" r="6" fill="#ff6b35"/>
        <text x="6" y="12" text-anchor="middle" fill="white" font-size="8">蜀</text>
        <text x="20" y="12" fill="#a0aec0" font-size="10">x2</text>
        
        <circle cx="48" cy="8" r="6" fill="#4299e1"/>
        <text x="46" y="12" text-anchor="middle" fill="white" font-size="8">魏</text>
        <text x="60" y="12" fill="#a0aec0" font-size="10">x1</text>
        
        <circle cx="88" cy="8" r="6" fill="#48bb78"/>
        <text x="86" y="12" text-anchor="middle" fill="white" font-size="8">吴</text>
        <text x="100" y="12" fill="#a0aec0" font-size="10">x1</text>
      </g>
    </g>
  </g>
  
  <!-- 阵容网格 -->
  <g transform="translate(20,240)">
    <text x="0" y="20" fill="#4299e1" font-family="serif" font-size="16" font-weight="bold">战场布局</text>
    
    <!-- 3x2 阵容网格 -->
    <g transform="translate(37,35)">
      <!-- 前排 -->
      <g>
        <!-- 位置1 - 刘备 -->
        <g>
          <rect x="0" y="0" width="80" height="100" rx="12" fill="url(#cardGradient)" stroke="#ff6b35" stroke-width="2" opacity="0.9"/>
          
          <!-- 武将头像 -->
          <g transform="translate(15,10)">
            <circle cx="25" cy="25" r="20" fill="rgba(255,107,53,0.3)" stroke="#ff6b35" stroke-width="2"/>
            <text x="25" y="32" text-anchor="middle" fill="#ff6b35" font-size="16">👑</text>
          </g>
          
          <!-- 武将信息 -->
          <text x="40" y="65" text-anchor="middle" fill="#e2e8f0" font-size="10" font-weight="bold">刘备</text>
          <text x="40" y="78" text-anchor="middle" fill="#a0aec0" font-size="8">Lv.45</text>
          
          <!-- 星级 -->
          <g transform="translate(20,85)">
            <text x="20" y="10" text-anchor="middle" fill="#ffd700" font-size="8">★★★★★</text>
          </g>
        </g>
        
        <!-- 位置2 - 关羽 -->
        <g transform="translate(90,0)">
          <rect x="0" y="0" width="80" height="100" rx="12" fill="url(#cardGradient)" stroke="#ff6b35" stroke-width="2" opacity="0.9"/>
          
          <!-- 武将头像 -->
          <g transform="translate(15,10)">
            <circle cx="25" cy="25" r="20" fill="rgba(255,107,53,0.3)" stroke="#ff6b35" stroke-width="2"/>
            <text x="25" y="32" text-anchor="middle" fill="#ff6b35" font-size="16">⚔️</text>
          </g>
          
          <!-- 武将信息 -->
          <text x="40" y="65" text-anchor="middle" fill="#e2e8f0" font-size="10" font-weight="bold">关羽</text>
          <text x="40" y="78" text-anchor="middle" fill="#a0aec0" font-size="8">Lv.50</text>
          
          <!-- 星级 -->
          <g transform="translate(15,85)">
            <text x="25" y="10" text-anchor="middle" fill="#ffd700" font-size="8">★★★★★★</text>
          </g>
        </g>
        
        <!-- 位置3 - 张飞 -->
        <g transform="translate(180,0)">
          <rect x="0" y="0" width="80" height="100" rx="12" fill="url(#cardGradient)" stroke="#ff6b35" stroke-width="2" opacity="0.9"/>
          
          <!-- 武将头像 -->
          <g transform="translate(15,10)">
            <circle cx="25" cy="25" r="20" fill="rgba(255,107,53,0.3)" stroke="#ff6b35" stroke-width="2"/>
            <text x="25" y="32" text-anchor="middle" fill="#ff6b35" font-size="16">🛡️</text>
          </g>
          
          <!-- 武将信息 -->
          <text x="40" y="65" text-anchor="middle" fill="#e2e8f0" font-size="10" font-weight="bold">张飞</text>
          <text x="40" y="78" text-anchor="middle" fill="#a0aec0" font-size="8">Lv.42</text>
          
          <!-- 星级 -->
          <g transform="translate(25,85)">
            <text x="15" y="10" text-anchor="middle" fill="#ffd700" font-size="8">★★★★</text>
          </g>
        </g>
      </g>
      
      <!-- 后排 -->
      <g transform="translate(0,120)">
        <!-- 位置4 - 诸葛亮 -->
        <g>
          <rect x="0" y="0" width="80" height="100" rx="12" fill="url(#cardGradient)" stroke="#4299e1" stroke-width="2" opacity="0.9"/>
          
          <!-- 武将头像 -->
          <g transform="translate(15,10)">
            <circle cx="25" cy="25" r="20" fill="rgba(66,153,225,0.3)" stroke="#4299e1" stroke-width="2"/>
            <text x="25" y="32" text-anchor="middle" fill="#4299e1" font-size="16">🧙</text>
          </g>
          
          <!-- 武将信息 -->
          <text x="40" y="65" text-anchor="middle" fill="#e2e8f0" font-size="10" font-weight="bold">诸葛亮</text>
          <text x="40" y="78" text-anchor="middle" fill="#a0aec0" font-size="8">Lv.48</text>
          
          <!-- 星级 -->
          <g transform="translate(15,85)">
            <text x="25" y="10" text-anchor="middle" fill="#ffd700" font-size="8">★★★★★★</text>
          </g>
        </g>
        
        <!-- 位置5 - 空位 -->
        <g transform="translate(90,0)">
          <rect x="0" y="0" width="80" height="100" rx="12" fill="url(#heroSlot)" stroke="#4299e1" stroke-width="2" stroke-dasharray="5,5" opacity="0.5"/>
          
          <!-- 添加图标 -->
          <g transform="translate(15,10)">
            <circle cx="25" cy="25" r="20" fill="rgba(66,153,225,0.2)" stroke="#4299e1" stroke-width="1" stroke-dasharray="3,3"/>
            <text x="25" y="32" text-anchor="middle" fill="#4299e1" font-size="20">+</text>
          </g>
          
          <!-- 提示文字 -->
          <text x="40" y="75" text-anchor="middle" fill="#4299e1" font-size="10">点击添加</text>
          <text x="40" y="88" text-anchor="middle" fill="#a0aec0" font-size="8">武将</text>
        </g>
        
        <!-- 位置6 - 空位 -->
        <g transform="translate(180,0)">
          <rect x="0" y="0" width="80" height="100" rx="12" fill="url(#heroSlot)" stroke="#4299e1" stroke-width="2" stroke-dasharray="5,5" opacity="0.5"/>
          
          <!-- 添加图标 -->
          <g transform="translate(15,10)">
            <circle cx="25" cy="25" r="20" fill="rgba(66,153,225,0.2)" stroke="#4299e1" stroke-width="1" stroke-dasharray="3,3"/>
            <text x="25" y="32" text-anchor="middle" fill="#4299e1" font-size="20">+</text>
          </g>
          
          <!-- 提示文字 -->
          <text x="40" y="75" text-anchor="middle" fill="#4299e1" font-size="10">点击添加</text>
          <text x="40" y="88" text-anchor="middle" fill="#a0aec0" font-size="8">武将</text>
        </g>
      </g>
    </g>
  </g>
  
  <!-- 武将列表 -->
  <g transform="translate(20,500)">
    <text x="0" y="20" fill="#4299e1" font-family="serif" font-size="16" font-weight="bold">可用武将</text>
    
    <!-- 武将卡片列表 -->
    <g transform="translate(0,35)">
      <!-- 赵云 -->
      <g>
        <rect x="0" y="0" width="75" height="90" rx="8" fill="url(#cardGradient)" stroke="#48bb78" stroke-width="1" opacity="0.9"/>
        
        <!-- 武将头像 -->
        <g transform="translate(12,8)">
          <circle cx="25" cy="25" r="18" fill="rgba(72,187,120,0.3)" stroke="#48bb78" stroke-width="1"/>
          <text x="25" y="30" text-anchor="middle" fill="#48bb78" font-size="14">🐉</text>
        </g>
        
        <!-- 武将信息 -->
        <text x="37" y="55" text-anchor="middle" fill="#e2e8f0" font-size="9" font-weight="bold">赵云</text>
        <text x="37" y="68" text-anchor="middle" fill="#a0aec0" font-size="7">Lv.38</text>
        
        <!-- 星级 -->
        <g transform="translate(15,75)">
          <text x="22" y="10" text-anchor="middle" fill="#ffd700" font-size="7">★★★★★</text>
        </g>
      </g>
      
      <!-- 曹操 -->
      <g transform="translate(85,0)">
        <rect x="0" y="0" width="75" height="90" rx="8" fill="url(#cardGradient)" stroke="#4299e1" stroke-width="1" opacity="0.9"/>
        
        <!-- 武将头像 -->
        <g transform="translate(12,8)">
          <circle cx="25" cy="25" r="18" fill="rgba(66,153,225,0.3)" stroke="#4299e1" stroke-width="1"/>
          <text x="25" y="30" text-anchor="middle" fill="#4299e1" font-size="14">👑</text>
        </g>
        
        <!-- 武将信息 -->
        <text x="37" y="55" text-anchor="middle" fill="#e2e8f0" font-size="9" font-weight="bold">曹操</text>
        <text x="37" y="68" text-anchor="middle" fill="#a0aec0" font-size="7">Lv.46</text>
        
        <!-- 星级 -->
        <g transform="translate(10,75)">
          <text x="27" y="10" text-anchor="middle" fill="#ffd700" font-size="7">★★★★★★</text>
        </g>
      </g>
      
      <!-- 孙权 -->
      <g transform="translate(170,0)">
        <rect x="0" y="0" width="75" height="90" rx="8" fill="url(#cardGradient)" stroke="#48bb78" stroke-width="1" opacity="0.9"/>
        
        <!-- 武将头像 -->
        <g transform="translate(12,8)">
          <circle cx="25" cy="25" r="18" fill="rgba(72,187,120,0.3)" stroke="#48bb78" stroke-width="1"/>
          <text x="25" y="30" text-anchor="middle" fill="#48bb78" font-size="14">🦁</text>
        </g>
        
        <!-- 武将信息 -->
        <text x="37" y="55" text-anchor="middle" fill="#e2e8f0" font-size="9" font-weight="bold">孙权</text>
        <text x="37" y="68" text-anchor="middle" fill="#a0aec0" font-size="7">Lv.44</text>
        
        <!-- 星级 -->
        <g transform="translate(20,75)">
          <text x="17" y="10" text-anchor="middle" fill="#ffd700" font-size="7">★★★★★</text>
        </g>
      </g>
      
      <!-- 吕布 -->
      <g transform="translate(255,0)">
        <rect x="0" y="0" width="75" height="90" rx="8" fill="url(#cardGradient)" stroke="#ed8936" stroke-width="1" opacity="0.9"/>
        
        <!-- 武将头像 -->
        <g transform="translate(12,8)">
          <circle cx="25" cy="25" r="18" fill="rgba(237,137,54,0.3)" stroke="#ed8936" stroke-width="1"/>
          <text x="25" y="30" text-anchor="middle" fill="#ed8936" font-size="14">🔥</text>
        </g>
        
        <!-- 武将信息 -->
        <text x="37" y="55" text-anchor="middle" fill="#e2e8f0" font-size="9" font-weight="bold">吕布</text>
        <text x="37" y="68" text-anchor="middle" fill="#a0aec0" font-size="7">Lv.52</text>
        
        <!-- 星级 -->
        <g transform="translate(10,75)">
          <text x="27" y="10" text-anchor="middle" fill="#ffd700" font-size="7">★★★★★★</text>
        </g>
      </g>
    </g>
  </g>
  
  <!-- 操作按钮栏 -->
  <g transform="translate(20,620)">
    <!-- 保存阵容 -->
    <g>
      <rect x="0" y="0" width="80" height="36" rx="18" fill="rgba(72,187,120,0.3)" stroke="#48bb78" stroke-width="1"/>
      <text x="40" y="24" text-anchor="middle" fill="#48bb78" font-size="12" font-weight="bold">保存</text>
    </g>
    
    <!-- 重置阵容 -->
    <g transform="translate(90,0)">
      <rect x="0" y="0" width="80" height="36" rx="18" fill="rgba(237,137,54,0.2)" stroke="#ed8936" stroke-width="1"/>
      <text x="40" y="24" text-anchor="middle" fill="#ed8936" font-size="12" font-weight="bold">重置</text>
    </g>
    
    <!-- 模拟战斗 -->
    <g transform="translate(180,0)">
      <rect x="0" y="0" width="80" height="36" rx="18" fill="rgba(255,215,0,0.3)" stroke="#ffd700" stroke-width="1"/>
      <text x="40" y="24" text-anchor="middle" fill="#ffd700" font-size="12" font-weight="bold">模拟</text>
    </g>
    
    <!-- 推荐阵容 -->
    <g transform="translate(270,0)">
      <rect x="0" y="0" width="65" height="36" rx="18" fill="rgba(159,122,234,0.2)" stroke="#9f7aea" stroke-width="1"/>
      <text x="32" y="24" text-anchor="middle" fill="#9f7aea" font-size="12" font-weight="bold">推荐</text>
    </g>
  </g>
  
  <!-- 底部导航栏 -->
  <rect x="0" y="728" width="375" height="84" fill="rgba(26,32,44,0.95)"/>
  <rect x="0" y="728" width="375" height="1" fill="#4299e1" opacity="0.3"/>
  
  <!-- 导航图标 -->
  <g transform="translate(0,748)">
    <!-- 主页 -->
    <g transform="translate(37,0)">
      <circle cx="18" cy="18" r="16" fill="rgba(255,255,255,0.1)"/>
      <text x="18" y="25" text-anchor="middle" font-size="14" fill="#a0aec0">🏠</text>
      <text x="18" y="40" text-anchor="middle" font-size="10" fill="#a0aec0">主页</text>
    </g>
    
    <!-- 武将 -->
    <g transform="translate(112,0)">
      <circle cx="18" cy="18" r="16" fill="rgba(255,255,255,0.1)"/>
      <text x="18" y="25" text-anchor="middle" font-size="14" fill="#a0aec0">⚔️</text>
      <text x="18" y="40" text-anchor="middle" font-size="10" fill="#a0aec0">武将</text>
    </g>
    
    <!-- 阵容 (当前页面) -->
    <g transform="translate(187,0)">
      <circle cx="18" cy="18" r="16" fill="rgba(66,153,225,0.3)" stroke="#4299e1" stroke-width="2"/>
      <text x="18" y="25" text-anchor="middle" font-size="14" fill="#4299e1">👥</text>
      <text x="18" y="40" text-anchor="middle" font-size="10" fill="#4299e1">阵容</text>
    </g>
    
    <!-- 战斗 -->
    <g transform="translate(262,0)">
      <circle cx="18" cy="18" r="16" fill="rgba(255,255,255,0.1)"/>
      <text x="18" y="25" text-anchor="middle" font-size="14" fill="#a0aec0">⚡</text>
      <text x="18" y="40" text-anchor="middle" font-size="10" fill="#a0aec0">战斗</text>
    </g>
    
    <!-- 更多 -->
    <g transform="translate(337,0)">
      <circle cx="18" cy="18" r="16" fill="rgba(255,255,255,0.1)"/>
      <text x="18" y="25" text-anchor="middle" font-size="14" fill="#a0aec0">⋯</text>
      <text x="18" y="40" text-anchor="middle" font-size="10" fill="#a0aec0">更多</text>
    </g>
  </g>
  
  <!-- 装饰性光效 -->
  <g opacity="0.6">
    <circle cx="120" cy="200" r="2" fill="#4299e1" filter="url(#glow)">
      <animate attributeName="opacity" values="0.3;1;0.3" dur="2s" repeatCount="indefinite"/>
    </circle>
    <circle cx="250" cy="350" r="1.5" fill="#ffd700" filter="url(#glow)">
      <animate attributeName="opacity" values="0.5;1;0.5" dur="3s" repeatCount="indefinite"/>
    </circle>
    <circle cx="80" cy="550" r="1" fill="#48bb78" filter="url(#glow)">
      <animate attributeName="opacity" values="0.4;1;0.4" dur="2.5s" repeatCount="indefinite"/>
    </circle>
  </g>
</svg>