<svg width="375" height="812" viewBox="0 0 375 812" xmlns="http://www.w3.org/2000/svg">
  <!-- 背景 -->
  <defs>
    <linearGradient id="rechargeBg" x1="0%" y1="0%" x2="100%" y2="100%">
      <stop offset="0%" style="stop-color:#1a202c;stop-opacity:1" />
      <stop offset="50%" style="stop-color:#2d3748;stop-opacity:1" />
      <stop offset="100%" style="stop-color:#1a1a2e;stop-opacity:1" />
    </linearGradient>
    <linearGradient id="cardGradient" x1="0%" y1="0%" x2="100%" y2="100%">
      <stop offset="0%" style="stop-color:#4a5568;stop-opacity:0.9" />
      <stop offset="100%" style="stop-color:#2d3748;stop-opacity:0.9" />
    </linearGradient>
    <linearGradient id="vipGradient" x1="0%" y1="0%" x2="100%" y2="100%">
      <stop offset="0%" style="stop-color:#ffd700;stop-opacity:0.8" />
      <stop offset="100%" style="stop-color:#ff8c00;stop-opacity:0.8" />
    </linearGradient>
    <linearGradient id="gemGradient" x1="0%" y1="0%" x2="100%" y2="100%">
      <stop offset="0%" style="stop-color:#9f7aea;stop-opacity:0.8" />
      <stop offset="100%" style="stop-color:#805ad5;stop-opacity:0.8" />
    </linearGradient>
    <linearGradient id="hotGradient" x1="0%" y1="0%" x2="100%" y2="100%">
      <stop offset="0%" style="stop-color:#f56565;stop-opacity:0.8" />
      <stop offset="100%" style="stop-color:#e53e3e;stop-opacity:0.8" />
    </linearGradient>
    <filter id="glow">
      <feGaussianBlur stdDeviation="3" result="coloredBlur"/>
      <feMerge> 
        <feMergeNode in="coloredBlur"/>
        <feMergeNode in="SourceGraphic"/> 
      </feMerge>
    </filter>
    <filter id="dropshadow">
      <feDropShadow dx="0" dy="2" stdDeviation="4" flood-color="#000000" flood-opacity="0.3"/>
    </filter>
  </defs>
  
  <rect width="375" height="812" fill="url(#rechargeBg)"/>
  
  <!-- 装饰性背景图案 -->
  <g opacity="0.1">
    <circle cx="60" cy="150" r="35" fill="#ffd700"/>
    <circle cx="320" cy="250" r="20" fill="#9f7aea"/>
    <circle cx="80" cy="650" r="25" fill="#4299e1"/>
    <polygon points="300,100 320,130 280,130" fill="#ffd700"/>
  </g>
  
  <!-- 顶部导航栏 -->
  <rect x="0" y="0" width="375" height="88" fill="rgba(26,32,44,0.95)"/>
  <rect x="0" y="88" width="375" height="1" fill="#ffd700" opacity="0.3"/>
  
  <!-- 返回按钮 -->
  <g transform="translate(16,44)">
    <circle cx="20" cy="20" r="18" fill="rgba(255,215,0,0.2)" stroke="#ffd700" stroke-width="1"/>
    <path d="M25 15 L15 20 L25 25" stroke="#ffd700" stroke-width="2" fill="none" stroke-linecap="round"/>
  </g>
  
  <!-- 页面标题 -->
  <text x="187" y="68" text-anchor="middle" fill="#ffd700" font-family="serif" font-size="20" font-weight="bold">充值中心</text>
  
  <!-- 客服按钮 -->
  <g transform="translate(320,44)">
    <circle cx="20" cy="20" r="18" fill="rgba(66,153,225,0.2)" stroke="#4299e1" stroke-width="1"/>
    <text x="20" y="26" text-anchor="middle" fill="#4299e1" font-size="12">💬</text>
  </g>
  
  <!-- 当前余额显示 -->
  <g transform="translate(20,108)">
    <rect x="0" y="0" width="335" height="60" rx="12" fill="url(#cardGradient)" stroke="#ffd700" stroke-width="1" opacity="0.9" filter="url(#dropshadow)"/>
    
    <!-- 钻石余额 -->
    <g transform="translate(20,15)">
      <circle cx="15" cy="15" r="12" fill="url(#gemGradient)" filter="url(#glow)"/>
      <text x="15" y="20" text-anchor="middle" fill="white" font-size="10">💎</text>
      <text x="40" y="12" fill="#e2e8f0" font-size="12" font-weight="bold">钻石</text>
      <text x="40" y="26" fill="#9f7aea" font-size="16" font-weight="bold">1,250</text>
    </g>
    
    <!-- 金币余额 -->
    <g transform="translate(150,15)">
      <circle cx="15" cy="15" r="12" fill="url(#vipGradient)" filter="url(#glow)"/>
      <text x="15" y="20" text-anchor="middle" fill="white" font-size="10">🪙</text>
      <text x="40" y="12" fill="#e2e8f0" font-size="12" font-weight="bold">金币</text>
      <text x="40" y="26" fill="#ffd700" font-size="16" font-weight="bold">85,600</text>
    </g>
    
    <!-- 充值记录 -->
    <g transform="translate(280,15)">
      <rect x="0" y="0" width="50" height="30" rx="15" fill="rgba(66,153,225,0.2)" stroke="#4299e1" stroke-width="1"/>
      <text x="25" y="20" text-anchor="middle" fill="#4299e1" font-size="11" font-weight="bold">记录</text>
    </g>
  </g>
  
  <!-- 热门推荐标签 -->
  <g transform="translate(20,188)">
    <rect x="0" y="0" width="80" height="24" rx="12" fill="url(#hotGradient)" filter="url(#glow)"/>
    <text x="40" y="16" text-anchor="middle" fill="white" font-size="12" font-weight="bold">🔥 热门</text>
  </g>
  
  <!-- 充值套餐网格 -->
  <g transform="translate(20,225)">
    <!-- 第一行 -->
    <g>
      <!-- 小额充值 -->
      <g>
        <rect x="0" y="0" width="105" height="120" rx="12" fill="url(#cardGradient)" stroke="#4299e1" stroke-width="1" filter="url(#dropshadow)"/>
        
        <!-- 钻石图标 -->
        <g transform="translate(52,20)">
          <circle cx="0" cy="0" r="15" fill="url(#gemGradient)" filter="url(#glow)"/>
          <text x="0" y="5" text-anchor="middle" fill="white" font-size="12">💎</text>
        </g>
        
        <!-- 数量 -->
        <text x="52" y="50" text-anchor="middle" fill="#9f7aea" font-size="18" font-weight="bold">60</text>
        <text x="52" y="65" text-anchor="middle" fill="#a0aec0" font-size="10">钻石</text>
        
        <!-- 价格 -->
        <text x="52" y="85" text-anchor="middle" fill="#ffd700" font-size="16" font-weight="bold">¥6</text>
        
        <!-- 购买按钮 -->
        <g transform="translate(15,95)">
          <rect x="0" y="0" width="75" height="20" rx="10" fill="rgba(66,153,225,0.3)" stroke="#4299e1" stroke-width="1"/>
          <text x="37" y="14" text-anchor="middle" fill="#4299e1" font-size="10" font-weight="bold">购买</text>
        </g>
      </g>
      
      <!-- 中等充值 (推荐) -->
      <g transform="translate(115,0)">
        <rect x="0" y="0" width="105" height="120" rx="12" fill="url(#cardGradient)" stroke="#ffd700" stroke-width="2" filter="url(#dropshadow)"/>
        
        <!-- 推荐标签 -->
        <g transform="translate(75,-5)">
          <rect x="0" y="0" width="30" height="16" rx="8" fill="url(#hotGradient)"/>
          <text x="15" y="11" text-anchor="middle" fill="white" font-size="8" font-weight="bold">推荐</text>
        </g>
        
        <!-- 钻石图标 -->
        <g transform="translate(52,20)">
          <circle cx="0" cy="0" r="15" fill="url(#gemGradient)" filter="url(#glow)"/>
          <text x="0" y="5" text-anchor="middle" fill="white" font-size="12">💎</text>
        </g>
        
        <!-- 数量 -->
        <text x="52" y="50" text-anchor="middle" fill="#9f7aea" font-size="18" font-weight="bold">300</text>
        <text x="52" y="65" text-anchor="middle" fill="#a0aec0" font-size="10">钻石 +30赠送</text>
        
        <!-- 价格 -->
        <text x="52" y="85" text-anchor="middle" fill="#ffd700" font-size="16" font-weight="bold">¥30</text>
        
        <!-- 购买按钮 -->
        <g transform="translate(15,95)">
          <rect x="0" y="0" width="75" height="20" rx="10" fill="rgba(255,215,0,0.3)" stroke="#ffd700" stroke-width="1"/>
          <text x="37" y="14" text-anchor="middle" fill="#ffd700" font-size="10" font-weight="bold">购买</text>
        </g>
      </g>
      
      <!-- 大额充值 -->
      <g transform="translate(230,0)">
        <rect x="0" y="0" width="105" height="120" rx="12" fill="url(#cardGradient)" stroke="#9f7aea" stroke-width="1" filter="url(#dropshadow)"/>
        
        <!-- 钻石图标 -->
        <g transform="translate(52,20)">
          <circle cx="0" cy="0" r="15" fill="url(#gemGradient)" filter="url(#glow)"/>
          <text x="0" y="5" text-anchor="middle" fill="white" font-size="12">💎</text>
        </g>
        
        <!-- 数量 -->
        <text x="52" y="50" text-anchor="middle" fill="#9f7aea" font-size="18" font-weight="bold">680</text>
        <text x="52" y="65" text-anchor="middle" fill="#a0aec0" font-size="10">钻石 +100赠送</text>
        
        <!-- 价格 -->
        <text x="52" y="85" text-anchor="middle" fill="#ffd700" font-size="16" font-weight="bold">¥68</text>
        
        <!-- 购买按钮 -->
        <g transform="translate(15,95)">
          <rect x="0" y="0" width="75" height="20" rx="10" fill="rgba(159,122,234,0.3)" stroke="#9f7aea" stroke-width="1"/>
          <text x="37" y="14" text-anchor="middle" fill="#9f7aea" font-size="10" font-weight="bold">购买</text>
        </g>
      </g>
    </g>
    
    <!-- 第二行 -->
    <g transform="translate(0,135)">
      <!-- 超值充值 -->
      <g>
        <rect x="0" y="0" width="105" height="120" rx="12" fill="url(#cardGradient)" stroke="#48bb78" stroke-width="1" filter="url(#dropshadow)"/>
        
        <!-- 钻石图标 -->
        <g transform="translate(52,20)">
          <circle cx="0" cy="0" r="15" fill="url(#gemGradient)" filter="url(#glow)"/>
          <text x="0" y="5" text-anchor="middle" fill="white" font-size="12">💎</text>
        </g>
        
        <!-- 数量 -->
        <text x="52" y="50" text-anchor="middle" fill="#9f7aea" font-size="18" font-weight="bold">1280</text>
        <text x="52" y="65" text-anchor="middle" fill="#a0aec0" font-size="10">钻石 +280赠送</text>
        
        <!-- 价格 -->
        <text x="52" y="85" text-anchor="middle" fill="#ffd700" font-size="16" font-weight="bold">¥128</text>
        
        <!-- 购买按钮 -->
        <g transform="translate(15,95)">
          <rect x="0" y="0" width="75" height="20" rx="10" fill="rgba(72,187,120,0.3)" stroke="#48bb78" stroke-width="1"/>
          <text x="37" y="14" text-anchor="middle" fill="#48bb78" font-size="10" font-weight="bold">购买</text>
        </g>
      </g>
      
      <!-- 豪华充值 -->
      <g transform="translate(115,0)">
        <rect x="0" y="0" width="105" height="120" rx="12" fill="url(#cardGradient)" stroke="#ed8936" stroke-width="1" filter="url(#dropshadow)"/>
        
        <!-- 钻石图标 -->
        <g transform="translate(52,20)">
          <circle cx="0" cy="0" r="15" fill="url(#gemGradient)" filter="url(#glow)"/>
          <text x="0" y="5" text-anchor="middle" fill="white" font-size="12">💎</text>
        </g>
        
        <!-- 数量 -->
        <text x="52" y="50" text-anchor="middle" fill="#9f7aea" font-size="18" font-weight="bold">3280</text>
        <text x="52" y="65" text-anchor="middle" fill="#a0aec0" font-size="10">钻石 +980赠送</text>
        
        <!-- 价格 -->
        <text x="52" y="85" text-anchor="middle" fill="#ffd700" font-size="16" font-weight="bold">¥328</text>
        
        <!-- 购买按钮 -->
        <g transform="translate(15,95)">
          <rect x="0" y="0" width="75" height="20" rx="10" fill="rgba(237,137,54,0.3)" stroke="#ed8936" stroke-width="1"/>
          <text x="37" y="14" text-anchor="middle" fill="#ed8936" font-size="10" font-weight="bold">购买</text>
        </g>
      </g>
      
      <!-- 至尊充值 -->
      <g transform="translate(230,0)">
        <rect x="0" y="0" width="105" height="120" rx="12" fill="url(#cardGradient)" stroke="#ffd700" stroke-width="2" filter="url(#dropshadow)"/>
        
        <!-- VIP标签 -->
        <g transform="translate(75,-5)">
          <rect x="0" y="0" width="30" height="16" rx="8" fill="url(#vipGradient)"/>
          <text x="15" y="11" text-anchor="middle" fill="white" font-size="8" font-weight="bold">VIP</text>
        </g>
        
        <!-- 钻石图标 -->
        <g transform="translate(52,20)">
          <circle cx="0" cy="0" r="15" fill="url(#gemGradient)" filter="url(#glow)"/>
          <text x="0" y="5" text-anchor="middle" fill="white" font-size="12">💎</text>
        </g>
        
        <!-- 数量 -->
        <text x="52" y="50" text-anchor="middle" fill="#9f7aea" font-size="18" font-weight="bold">6480</text>
        <text x="52" y="65" text-anchor="middle" fill="#a0aec0" font-size="10">钻石 +1980赠送</text>
        
        <!-- 价格 -->
        <text x="52" y="85" text-anchor="middle" fill="#ffd700" font-size="16" font-weight="bold">¥648</text>
        
        <!-- 购买按钮 -->
        <g transform="translate(15,95)">
          <rect x="0" y="0" width="75" height="20" rx="10" fill="url(#vipGradient)"/>
          <text x="37" y="14" text-anchor="middle" fill="white" font-size="10" font-weight="bold">购买</text>
        </g>
      </g>
    </g>
  </g>
  
  <!-- 月卡特惠 -->
  <g transform="translate(20,495)">
    <rect x="0" y="0" width="335" height="80" rx="12" fill="url(#cardGradient)" stroke="#ffd700" stroke-width="2" opacity="0.9" filter="url(#dropshadow)"/>
    
    <!-- 月卡图标 -->
    <g transform="translate(25,25)">
      <circle cx="15" cy="15" r="12" fill="url(#vipGradient)" filter="url(#glow)"/>
      <text x="15" y="20" text-anchor="middle" fill="white" font-size="10">📅</text>
    </g>
    
    <!-- 月卡信息 -->
    <g transform="translate(60,15)">
      <text x="0" y="15" fill="#ffd700" font-size="16" font-weight="bold">月卡特惠</text>
      <text x="0" y="30" fill="#e2e8f0" font-size="12">每日领取100钻石，连续30天</text>
      <text x="0" y="45" fill="#a0aec0" font-size="10">总价值3000钻石，超值优惠！</text>
    </g>
    
    <!-- 价格和购买 -->
    <g transform="translate(250,20)">
      <text x="0" y="15" fill="#ffd700" font-size="18" font-weight="bold">¥30</text>
      <g transform="translate(0,25)">
        <rect x="0" y="0" width="60" height="25" rx="12" fill="url(#vipGradient)"/>
        <text x="30" y="17" text-anchor="middle" fill="white" font-size="11" font-weight="bold">购买</text>
      </g>
    </g>
  </g>
  
  <!-- 首充奖励 -->
  <g transform="translate(20,590)">
    <rect x="0" y="0" width="335" height="60" rx="12" fill="url(#cardGradient)" stroke="#f56565" stroke-width="1" opacity="0.9"/>
    
    <text x="167" y="20" text-anchor="middle" fill="#f56565" font-family="serif" font-size="14" font-weight="bold">🎁 首充双倍奖励</text>
    <text x="167" y="35" text-anchor="middle" fill="#e2e8f0" font-size="12">首次充值任意金额，即可获得双倍钻石</text>
    <text x="167" y="50" text-anchor="middle" fill="#a0aec0" font-size="10">限时活动，机不可失！</text>
  </g>
  
  <!-- 支付方式 -->
  <g transform="translate(20,665)">
    <text x="0" y="15" fill="#e2e8f0" font-size="14" font-weight="bold">支付方式</text>
    
    <g transform="translate(0,25)">
      <!-- 微信支付 -->
      <g>
        <rect x="0" y="0" width="80" height="35" rx="8" fill="rgba(7,193,96,0.2)" stroke="#07c160" stroke-width="1"/>
        <text x="40" y="23" text-anchor="middle" fill="#07c160" font-size="12" font-weight="bold">微信支付</text>
      </g>
      
      <!-- 支付宝 -->
      <g transform="translate(90,0)">
        <rect x="0" y="0" width="80" height="35" rx="8" fill="rgba(0,160,233,0.2)" stroke="#00a0e9" stroke-width="1"/>
        <text x="40" y="23" text-anchor="middle" fill="#00a0e9" font-size="12" font-weight="bold">支付宝</text>
      </g>
      
      <!-- Apple Pay -->
      <g transform="translate(180,0)">
        <rect x="0" y="0" width="80" height="35" rx="8" fill="rgba(0,0,0,0.2)" stroke="#000000" stroke-width="1"/>
        <text x="40" y="23" text-anchor="middle" fill="#000000" font-size="12" font-weight="bold">Apple Pay</text>
      </g>
      
      <!-- 银行卡 -->
      <g transform="translate(270,0)">
        <rect x="0" y="0" width="65" height="35" rx="8" fill="rgba(66,153,225,0.2)" stroke="#4299e1" stroke-width="1"/>
        <text x="32" y="23" text-anchor="middle" fill="#4299e1" font-size="12" font-weight="bold">银行卡</text>
      </g>
    </g>
  </g>
  
  <!-- 底部提示 -->
  <g transform="translate(20,730)">
    <text x="167" y="15" text-anchor="middle" fill="#a0aec0" font-size="11">充值遇到问题？联系客服获得帮助</text>
    <text x="167" y="30" text-anchor="middle" fill="#4299e1" font-size="11" text-decoration="underline">客服热线：400-123-4567</text>
  </g>
  
  <!-- 底部导航栏 -->
  <rect x="0" y="768" width="375" height="44" fill="rgba(26,32,44,0.95)"/>
  <rect x="0" y="768" width="375" height="1" fill="#ffd700" opacity="0.3"/>
  
  <!-- 装饰性光效 -->
  <g opacity="0.6">
    <circle cx="120" cy="200" r="2" fill="#ffd700" filter="url(#glow)">
      <animate attributeName="opacity" values="0.3;1;0.3" dur="2s" repeatCount="indefinite"/>
    </circle>
    <circle cx="250" cy="400" r="1.5" fill="#9f7aea" filter="url(#glow)">
      <animate attributeName="opacity" values="0.5;1;0.5" dur="3s" repeatCount="indefinite"/>
    </circle>
    <circle cx="80" cy="600" r="1" fill="#4299e1" filter="url(#glow)">
      <animate attributeName="opacity" values="0.4;1;0.4" dur="2.5s" repeatCount="indefinite"/>
    </circle>
  </g>
</svg>