<svg width="375" height="812" viewBox="0 0 375 812" fill="none" xmlns="http://www.w3.org/2000/svg">
  <!-- 背景 -->
  <rect width="375" height="812" fill="#1A1A1A"/>
  
  <!-- 顶部导航栏 -->
  <rect width="375" height="56" fill="#2D2D2D"/>
  
  <!-- 返回按钮 -->
  <circle cx="28" cy="28" r="16" fill="#3D3D3D"/>
  <polygon points="24,28 32,22 32,34" fill="white"/>
  
  <!-- 页面标题 -->
  <text x="187.5" y="32" fill="white" font-size="18" font-weight="600" text-anchor="middle">武将系统</text>
  
  <!-- 搜索和筛选栏 -->
  <rect x="16" y="72" width="343" height="48" rx="8" fill="#2D2D2D" stroke="#3D3D3D" stroke-width="1"/>
  
  <!-- 搜索框 -->
  <rect x="24" y="80" width="140" height="32" rx="16" fill="#3D3D3D"/>
  <circle cx="40" cy="96" r="6" fill="#666" stroke="#888" stroke-width="1"/>
  <text x="52" y="100" fill="#888" font-size="12">搜索武将...</text>
  
  <!-- 筛选按钮 -->
  <rect x="172" y="80" width="60" height="32" rx="6" fill="#3D3D3D"/>
  <text x="202" y="100" fill="white" font-size="12" text-anchor="middle">品质</text>
  
  <rect x="240" y="80" width="60" height="32" rx="6" fill="#3D3D3D"/>
  <text x="270" y="100" fill="white" font-size="12" text-anchor="middle">阵营</text>
  
  <rect x="308" y="80" width="43" height="32" rx="6" fill="#4A90E2"/>
  <text x="329.5" y="100" fill="white" font-size="12" text-anchor="middle">筛选</text>
  
  <!-- 武将网格列表 -->
  <g transform="translate(16, 136)">
    <!-- 第一行武将 -->
    <g transform="translate(0, 0)">
      <!-- 武将1 - 关羽 (传说品质) -->
      <rect x="0" y="0" width="110" height="140" rx="8" fill="#2D2D2D" stroke="#FF6B35" stroke-width="3"/>
      <circle cx="55" cy="35" r="25" fill="#8B4513" stroke="#FF6B35" stroke-width="2"/>
      <text x="55" y="70" fill="white" font-size="12" font-weight="600" text-anchor="middle">关羽</text>
      
      <!-- 星级 -->
      <g transform="translate(20, 75)">
        <polygon points="0,0 3,6 10,6 5,10 7,17 0,13 -7,17 -5,10 -10,6 -3,6" fill="#FFD700"/>
        <polygon points="15,0 18,6 25,6 20,10 22,17 15,13 8,17 10,10 5,6 12,6" fill="#FFD700"/>
        <polygon points="30,0 33,6 40,6 35,10 37,17 30,13 23,17 25,10 20,6 27,6" fill="#FFD700"/>
        <polygon points="45,0 48,6 55,6 50,10 52,17 45,13 38,17 40,10 35,6 42,6" fill="#FFD700"/>
        <polygon points="60,0 63,6 70,6 65,10 67,17 60,13 53,17 55,10 50,6 57,6" fill="#FFD700"/>
      </g>
      
      <text x="10" y="105" fill="white" font-size="10">Lv.60</text>
      <text x="70" y="105" fill="#FF6B6B" font-size="10">28,500</text>
      
      <!-- 阵营图标 -->
      <rect x="10" y="115" width="16" height="16" rx="2" fill="#E74C3C"/>
      <text x="18" y="127" fill="white" font-size="8" text-anchor="middle">蜀</text>
      
      <!-- 兵种图标 -->
      <text x="35" y="127" fill="#4A90E2" font-size="10">骑兵</text>
    </g>
    
    <!-- 武将2 - 张飞 (史诗品质) -->
    <g transform="translate(121, 0)">
      <rect x="0" y="0" width="110" height="140" rx="8" fill="#2D2D2D" stroke="#9B59B6" stroke-width="3"/>
      <circle cx="55" cy="35" r="25" fill="#654321" stroke="#9B59B6" stroke-width="2"/>
      <text x="55" y="70" fill="white" font-size="12" font-weight="600" text-anchor="middle">张飞</text>
      
      <!-- 4星 -->
      <g transform="translate(25, 75)">
        <polygon points="0,0 3,6 10,6 5,10 7,17 0,13 -7,17 -5,10 -10,6 -3,6" fill="#FFD700"/>
        <polygon points="15,0 18,6 25,6 20,10 22,17 15,13 8,17 10,10 5,6 12,6" fill="#FFD700"/>
        <polygon points="30,0 33,6 40,6 35,10 37,17 30,13 23,17 25,10 20,6 27,6" fill="#FFD700"/>
        <polygon points="45,0 48,6 55,6 50,10 52,17 45,13 38,17 40,10 35,6 42,6" fill="#FFD700"/>
      </g>
      
      <text x="10" y="105" fill="white" font-size="10">Lv.55</text>
      <text x="70" y="105" fill="#FF6B6B" font-size="10">24,200</text>
      
      <rect x="10" y="115" width="16" height="16" rx="2" fill="#E74C3C"/>
      <text x="18" y="127" fill="white" font-size="8" text-anchor="middle">蜀</text>
      <text x="35" y="127" fill="#4A90E2" font-size="10">步兵</text>
    </g>
    
    <!-- 武将3 - 赵云 (稀有品质) -->
    <g transform="translate(242, 0)">
      <rect x="0" y="0" width="110" height="140" rx="8" fill="#2D2D2D" stroke="#3498DB" stroke-width="3"/>
      <circle cx="55" cy="35" r="25" fill="#2F4F4F" stroke="#3498DB" stroke-width="2"/>
      <text x="55" y="70" fill="white" font-size="12" font-weight="600" text-anchor="middle">赵云</text>
      
      <!-- 3星 -->
      <g transform="translate(32.5, 75)">
        <polygon points="0,0 3,6 10,6 5,10 7,17 0,13 -7,17 -5,10 -10,6 -3,6" fill="#FFD700"/>
        <polygon points="15,0 18,6 25,6 20,10 22,17 15,13 8,17 10,10 5,6 12,6" fill="#FFD700"/>
        <polygon points="30,0 33,6 40,6 35,10 37,17 30,13 23,17 25,10 20,6 27,6" fill="#FFD700"/>
      </g>
      
      <text x="10" y="105" fill="white" font-size="10">Lv.45</text>
      <text x="70" y="105" fill="#FF6B6B" font-size="10">18,900</text>
      
      <rect x="10" y="115" width="16" height="16" rx="2" fill="#E74C3C"/>
      <text x="18" y="127" fill="white" font-size="8" text-anchor="middle">蜀</text>
      <text x="35" y="127" fill="#4A90E2" font-size="10">枪兵</text>
    </g>
  </g>
  
  <!-- 第二行武将 -->
  <g transform="translate(16, 292)">
    <!-- 武将4 - 曹操 -->
    <g transform="translate(0, 0)">
      <rect x="0" y="0" width="110" height="140" rx="8" fill="#2D2D2D" stroke="#9B59B6" stroke-width="3"/>
      <circle cx="55" cy="35" r="25" fill="#4B0082" stroke="#9B59B6" stroke-width="2"/>
      <text x="55" y="70" fill="white" font-size="12" font-weight="600" text-anchor="middle">曹操</text>
      
      <!-- 4星 -->
      <g transform="translate(25, 75)">
        <polygon points="0,0 3,6 10,6 5,10 7,17 0,13 -7,17 -5,10 -10,6 -3,6" fill="#FFD700"/>
        <polygon points="15,0 18,6 25,6 20,10 22,17 15,13 8,17 10,10 5,6 12,6" fill="#FFD700"/>
        <polygon points="30,0 33,6 40,6 35,10 37,17 30,13 23,17 25,10 20,6 27,6" fill="#FFD700"/>
        <polygon points="45,0 48,6 55,6 50,10 52,17 45,13 38,17 40,10 35,6 42,6" fill="#FFD700"/>
      </g>
      
      <text x="10" y="105" fill="white" font-size="10">Lv.58</text>
      <text x="70" y="105" fill="#FF6B6B" font-size="10">26,800</text>
      
      <rect x="10" y="115" width="16" height="16" rx="2" fill="#2C3E50"/>
      <text x="18" y="127" fill="white" font-size="8" text-anchor="middle">魏</text>
      <text x="35" y="127" fill="#4A90E2" font-size="10">术士</text>
    </g>
    
    <!-- 武将5 - 孙权 -->
    <g transform="translate(121, 0)">
      <rect x="0" y="0" width="110" height="140" rx="8" fill="#2D2D2D" stroke="#3498DB" stroke-width="3"/>
      <circle cx="55" cy="35" r="25" fill="#006400" stroke="#3498DB" stroke-width="2"/>
      <text x="55" y="70" fill="white" font-size="12" font-weight="600" text-anchor="middle">孙权</text>
      
      <!-- 3星 -->
      <g transform="translate(32.5, 75)">
        <polygon points="0,0 3,6 10,6 5,10 7,17 0,13 -7,17 -5,10 -10,6 -3,6" fill="#FFD700"/>
        <polygon points="15,0 18,6 25,6 20,10 22,17 15,13 8,17 10,10 5,6 12,6" fill="#FFD700"/>
        <polygon points="30,0 33,6 40,6 35,10 37,17 30,13 23,17 25,10 20,6 27,6" fill="#FFD700"/>
      </g>
      
      <text x="10" y="105" fill="white" font-size="10">Lv.42</text>
      <text x="70" y="105" fill="#FF6B6B" font-size="10">16,500</text>
      
      <rect x="10" y="115" width="16" height="16" rx="2" fill="#27AE60"/>
      <text x="18" y="127" fill="white" font-size="8" text-anchor="middle">吴</text>
      <text x="35" y="127" fill="#4A90E2" font-size="10">弓兵</text>
    </g>
    
    <!-- 空位 -->
    <g transform="translate(242, 0)">
      <rect x="0" y="0" width="110" height="140" rx="8" fill="#2D2D2D" stroke="#3D3D3D" stroke-width="2" stroke-dasharray="5,5"/>
      <circle cx="55" cy="70" r="20" fill="none" stroke="#666" stroke-width="2"/>
      <text x="55" y="75" fill="#666" font-size="24" text-anchor="middle">+</text>
      <text x="55" y="110" fill="#666" font-size="12" text-anchor="middle">空位</text>
    </g>
  </g>
  
  <!-- 第三行武将 -->
  <g transform="translate(16, 448)">
    <!-- 武将6 - 吕布 (神话品质) -->
    <g transform="translate(0, 0)">
      <rect x="0" y="0" width="110" height="140" rx="8" fill="#2D2D2D" stroke="#DC143C" stroke-width="3"/>
      <circle cx="55" cy="35" r="25" fill="#8B0000" stroke="#DC143C" stroke-width="2"/>
      <text x="55" y="70" fill="white" font-size="12" font-weight="600" text-anchor="middle">吕布</text>
      
      <!-- 5星满星 -->
      <g transform="translate(20, 75)">
        <polygon points="0,0 3,6 10,6 5,10 7,17 0,13 -7,17 -5,10 -10,6 -3,6" fill="#DC143C"/>
        <polygon points="15,0 18,6 25,6 20,10 22,17 15,13 8,17 10,10 5,6 12,6" fill="#DC143C"/>
        <polygon points="30,0 33,6 40,6 35,10 37,17 30,13 23,17 25,10 20,6 27,6" fill="#DC143C"/>
        <polygon points="45,0 48,6 55,6 50,10 52,17 45,13 38,17 40,10 35,6 42,6" fill="#DC143C"/>
        <polygon points="60,0 63,6 70,6 65,10 67,17 60,13 53,17 55,10 50,6 57,6" fill="#DC143C"/>
      </g>
      
      <text x="10" y="105" fill="white" font-size="10">Lv.70</text>
      <text x="70" y="105" fill="#FF6B6B" font-size="10">35,200</text>
      
      <rect x="10" y="115" width="16" height="16" rx="2" fill="#8B4513"/>
      <text x="18" y="127" fill="white" font-size="8" text-anchor="middle">群</text>
      <text x="35" y="127" fill="#4A90E2" font-size="10">骑兵</text>
    </g>
    
    <!-- 武将7 - 诸葛亮 -->
    <g transform="translate(121, 0)">
      <rect x="0" y="0" width="110" height="140" rx="8" fill="#2D2D2D" stroke="#9B59B6" stroke-width="3"/>
      <circle cx="55" cy="35" r="25" fill="#4169E1" stroke="#9B59B6" stroke-width="2"/>
      <text x="55" y="70" fill="white" font-size="12" font-weight="600" text-anchor="middle">诸葛亮</text>
      
      <!-- 4星 -->
      <g transform="translate(25, 75)">
        <polygon points="0,0 3,6 10,6 5,10 7,17 0,13 -7,17 -5,10 -10,6 -3,6" fill="#FFD700"/>
        <polygon points="15,0 18,6 25,6 20,10 22,17 15,13 8,17 10,10 5,6 12,6" fill="#FFD700"/>
        <polygon points="30,0 33,6 40,6 35,10 37,17 30,13 23,17 25,10 20,6 27,6" fill="#FFD700"/>
        <polygon points="45,0 48,6 55,6 50,10 52,17 45,13 38,17 40,10 35,6 42,6" fill="#FFD700"/>
      </g>
      
      <text x="10" y="105" fill="white" font-size="10">Lv.62</text>
      <text x="70" y="105" fill="#FF6B6B" font-size="10">29,100</text>
      
      <rect x="10" y="115" width="16" height="16" rx="2" fill="#E74C3C"/>
      <text x="18" y="127" fill="white" font-size="8" text-anchor="middle">蜀</text>
      <text x="35" y="127" fill="#4A90E2" font-size="10">术士</text>
    </g>
    
    <!-- 武将8 - 周瑜 -->
    <g transform="translate(242, 0)">
      <rect x="0" y="0" width="110" height="140" rx="8" fill="#2D2D2D" stroke="#3498DB" stroke-width="3"/>
      <circle cx="55" cy="35" r="25" fill="#FF6347" stroke="#3498DB" stroke-width="2"/>
      <text x="55" y="70" fill="white" font-size="12" font-weight="600" text-anchor="middle">周瑜</text>
      
      <!-- 3星 -->
      <g transform="translate(32.5, 75)">
        <polygon points="0,0 3,6 10,6 5,10 7,17 0,13 -7,17 -5,10 -10,6 -3,6" fill="#FFD700"/>
        <polygon points="15,0 18,6 25,6 20,10 22,17 15,13 8,17 10,10 5,6 12,6" fill="#FFD700"/>
        <polygon points="30,0 33,6 40,6 35,10 37,17 30,13 23,17 25,10 20,6 27,6" fill="#FFD700"/>
      </g>
      
      <text x="10" y="105" fill="white" font-size="10">Lv.48</text>
      <text x="70" y="105" fill="#FF6B6B" font-size="10">19,800</text>
      
      <rect x="10" y="115" width="16" height="16" rx="2" fill="#27AE60"/>
      <text x="18" y="127" fill="white" font-size="8" text-anchor="middle">吴</text>
      <text x="35" y="127" fill="#4A90E2" font-size="10">术士</text>
    </g>
  </g>
  
  <!-- 底部操作栏 -->
  <rect x="0" y="604" width="375" height="60" fill="#2D2D2D" stroke-top="#3D3D3D" stroke-width="1"/>
  
  <!-- 操作按钮 -->
  <rect x="16" y="620" width="80" height="28" rx="14" fill="#4A90E2"/>
  <text x="56" y="638" fill="white" font-size="12" font-weight="600" text-anchor="middle">武将召唤</text>
  
  <rect x="108" y="620" width="70" height="28" rx="14" fill="#9B59B6"/>
  <text x="143" y="638" fill="white" font-size="12" font-weight="600" text-anchor="middle">阵容编辑</text>
  
  <rect x="190" y="620" width="70" height="28" rx="14" fill="#E67E22"/>
  <text x="225" y="638" fill="white" font-size="12" font-weight="600" text-anchor="middle">武将图鉴</text>
  
  <rect x="272" y="620" width="87" height="28" rx="14" fill="#27AE60"/>
  <text x="315.5" y="638" fill="white" font-size="12" font-weight="600" text-anchor="middle">批量操作</text>
  
  <!-- 底部导航栏 -->
  <rect x="0" y="756" width="375" height="56" fill="#2D2D2D" stroke-top="#3D3D3D" stroke-width="1"/>
  
  <!-- 导航按钮 -->
  <g transform="translate(0, 756)">
    <!-- 首页 -->
    <g transform="translate(37.5, 8)">
      <circle cx="18.75" cy="16" r="12" fill="#666"/>
      <text x="18.75" y="36" fill="#666" font-size="10" text-anchor="middle">首页</text>
    </g>
    
    <!-- 武将 (当前页面) -->
    <g transform="translate(112.5, 8)">
      <circle cx="18.75" cy="16" r="12" fill="#4A90E2"/>
      <text x="18.75" y="36" fill="#4A90E2" font-size="10" text-anchor="middle">武将</text>
    </g>
    
    <!-- 战斗 -->
    <g transform="translate(187.5, 8)">
      <polygon points="9.75,8 27.75,8 27.75,24 9.75,24" fill="#666"/>
      <text x="18.75" y="36" fill="#666" font-size="10" text-anchor="middle">战斗</text>
    </g>
    
    <!-- 社交 -->
    <g transform="translate(262.5, 8)">
      <circle cx="18.75" cy="16" r="12" fill="#666"/>
      <text x="18.75" y="36" fill="#666" font-size="10" text-anchor="middle">社交</text>
    </g>
    
    <!-- 更多 -->
    <g transform="translate(337.5, 8)">
      <rect x="9.75" y="8" width="18" height="16" rx="4" fill="#666"/>
      <text x="18.75" y="36" fill="#666" font-size="10" text-anchor="middle">更多</text>
    </g>
  </g>
</svg>